<svg width="135" height="15" viewBox="0 0 135 15" fill="none" xmlns="http://www.w3.org/2000/svg">
<path d="M7.884 10.625C6.264 10.625 4.914 9.464 4.914 7.547C4.914 5.684 6.264 4.577 7.749 4.577C9.126 4.577 10.152 5.387 10.395 6.71L13.959 5.495C13.311 2.579 10.881 0.931999 7.614 0.931999C3.969 0.931999 0.864 3.659 0.864 7.52C0.864 11.57 3.699 14.27 7.884 14.27C11.475 14.27 13.716 12.596 14.607 9.221L10.827 7.925C10.611 9.518 9.639 10.625 7.884 10.625ZM54.2529 9.113C53.8479 10.166 53.1459 10.787 51.7419 10.787C50.1219 10.787 48.9609 9.842 48.8259 8.465H57.1959C57.3039 7.898 57.3579 7.331 57.3579 6.818C57.3579 5.036 56.8179 3.605 55.7109 2.552C54.6309 1.472 53.1459 0.931999 51.2829 0.931999C47.4759 0.931999 44.7759 3.875 44.7759 7.52C44.7759 11.516 47.7459 14.27 51.6879 14.27C54.6849 14.27 56.8179 12.812 57.6819 10.463L54.2529 9.113ZM48.8259 5.765C49.2309 4.685 50.2299 4.091 51.2829 4.091C52.6599 4.091 53.4699 4.793 53.4699 5.765H48.8259ZM88.5988 1.202V14H92.6488V6.035C92.6488 4.847 93.2158 4.145 94.1878 4.145C95.0518 4.145 95.5648 4.739 95.5648 5.576C95.5648 5.9 95.5108 6.197 95.4298 6.44H99.1558C99.2908 5.9 99.3718 5.387 99.3718 4.874C99.3718 2.498 98.1838 0.931999 95.7268 0.931999C94.2958 0.931999 93.1888 1.661 92.6488 2.66V1.202H88.5988Z" fill="black"/>
<path d="M130.347 9.68V14H134.667V9.68H130.347Z" fill="#150AFF"/>
</svg>
