<svg width="99" height="20" viewBox="0 0 99 20" fill="none" xmlns="http://www.w3.org/2000/svg">
<path d="M4.616 19V12.52C4.616 10.549 5.669 9.307 7.181 9.307C8.612 9.307 9.476 10.333 9.476 11.845V19H13.526V11.035C13.526 7.903 11.717 5.932 8.666 5.932C7.046 5.932 5.507 6.661 4.616 8.2V0.0999987H0.566V19H4.616ZM54.0703 14.113C53.6653 15.166 52.9633 15.787 51.5593 15.787C49.9393 15.787 48.7783 14.842 48.6433 13.465H57.0133C57.1213 12.898 57.1753 12.331 57.1753 11.818C57.1753 10.036 56.6353 8.605 55.5283 7.552C54.4483 6.472 52.9633 5.932 51.1003 5.932C47.2933 5.932 44.5933 8.875 44.5933 12.52C44.5933 16.516 47.5633 19.27 51.5053 19.27C54.5023 19.27 56.6353 17.812 57.4993 15.463L54.0703 14.113ZM48.6433 10.765C49.0483 9.685 50.0473 9.091 51.1003 9.091C52.4773 9.091 53.2873 9.793 53.2873 10.765H48.6433ZM87.4442 15.922C88.4162 18.163 90.3602 19.27 93.3032 19.27C96.5162 19.27 98.9192 17.515 98.9192 15.085C98.9192 12.736 97.6232 11.494 94.2482 10.981C92.3312 10.684 91.8182 10.36 91.8182 9.82C91.8182 9.361 92.3852 9.037 93.1682 9.037C94.0322 9.037 94.7612 9.442 95.0042 10.225L98.0822 8.578C97.3262 6.931 95.8682 5.932 93.0332 5.932C90.4412 5.932 88.0382 7.471 88.0382 9.82C88.0382 12.007 89.6852 13.33 92.3852 13.735C94.5722 14.059 95.1932 14.383 95.1932 15.031C95.1932 15.652 94.5992 16.03 93.4382 16.03C92.2232 16.03 91.0892 15.436 90.5492 14.275L87.4442 15.922Z" fill="black"/>
</svg>
