<svg width="20" height="20" viewBox="0 0 20 20" fill="none" xmlns="http://www.w3.org/2000/svg">
<g clip-path="url(#clip0)">
<path d="M19.9951 19.9994V19.9985H20.0001V12.6635C20.0001 9.0752 19.2276 6.31104 15.0326 6.31104C13.0159 6.31104 11.6626 7.4177 11.1101 8.46687H11.0517V6.64604H7.07422V19.9985H11.2159V13.3869C11.2159 11.646 11.5459 9.9627 13.7017 9.9627C15.8259 9.9627 15.8576 11.9494 15.8576 13.4985V19.9994H19.9951Z" fill="black"/>
<path d="M0.329102 6.64746H4.47577V20H0.329102V6.64746Z" fill="black"/>
<path d="M2.40167 0C1.07583 0 0 1.07583 0 2.40167C0 3.7275 1.07583 4.82583 2.40167 4.82583C3.7275 4.82583 4.80333 3.7275 4.80333 2.40167C4.8025 1.07583 3.72667 0 2.40167 0V0Z" fill="black"/>
</g>
<defs>
<clipPath id="clip0">
<rect width="20" height="20" fill="white"/>
</clipPath>
</defs>
</svg>
