<svg width="21" height="21" viewBox="0 0 21 21" fill="none" xmlns="http://www.w3.org/2000/svg">
<path d="M5.04175 11.4113C5.06802 11.3458 5.33094 10.3355 5.34936 10.267C4.93889 9.64941 4.48291 7.62682 4.83266 5.98508C5.20998 3.57621 7.76272 2.39204 10.1729 2.39204V2.38756C13.1904 2.38948 15.4491 4.0684 15.4515 6.95984C15.4535 9.22307 14.09 12.2146 11.7619 12.2146C11.7613 12.2146 11.7608 12.2146 11.7601 12.2146C10.9293 12.2146 9.87726 11.8378 9.60137 11.4677C9.28302 11.0412 9.20483 10.5149 9.37306 9.95254C9.7853 8.63667 10.311 7.06046 10.3723 6.00943C10.4292 5.01752 9.72538 4.37217 8.81262 4.37217C8.12577 4.37217 7.23368 4.77111 6.78908 5.89215C6.42186 6.82349 6.42971 7.79858 6.81311 8.87283C6.96259 9.29276 6.15045 12.0304 5.89026 12.9218C5.24378 15.1364 4.35874 17.9382 4.54796 19.4986L4.73061 21L5.64801 19.7977C6.91757 18.1358 8.23023 13.8368 8.57999 12.7908C9.61403 14.1299 11.7673 14.1683 12.0184 14.1683C15.1021 14.1683 18.5989 11.1063 18.4997 6.84448C18.4127 3.10709 15.6775 0 10.7628 0V0.00480654C6.08797 0.00480654 3.35947 2.50003 2.69152 5.65279C2.07981 8.57611 3.44022 10.801 5.04175 11.4113Z" fill="black"/>
</svg>
