<svg width="996" height="693" viewBox="0 0 996 693" fill="none" xmlns="http://www.w3.org/2000/svg">
<path opacity="0.3" fill-rule="evenodd" clip-rule="evenodd" d="M461.447 526.979C419.633 574.404 367.293 621.113 303.967 623.99C239.787 626.905 167.561 597.066 133.823 541.861C101.216 488.505 157.585 420.383 142.503 359.788C129.457 307.372 50.1925 281.06 55.5769 227.481C60.8157 175.351 125.593 155.129 166.334 122.653C209.331 88.3782 245.118 39.5095 299.823 32.784C357.226 25.7269 413.63 52.7413 461.135 86.4095C509.104 120.408 555.629 164.59 567.095 222.211C578.11 277.564 537.863 326.507 519.471 379.563C501.734 430.73 497.16 486.473 461.447 526.979Z" stroke="white" stroke-width="4"/>
<path opacity="0.4" fill-rule="evenodd" clip-rule="evenodd" d="M459.126 341.376C448.941 374.593 474.844 413.095 458.669 443.845C441.795 475.921 408.443 505.797 372.158 506.702C334.941 507.629 313.05 463.775 279.175 448.32C250.369 435.178 210.438 446.743 189.235 423.247C168.032 399.751 179.602 362.371 173.597 331.326C167.728 300.978 149.712 272.822 154.229 242.255C159.044 209.67 172.894 175.797 199.461 156.296C225.662 137.064 261.436 141.232 293.932 139.708C322.143 138.386 348.677 145.506 376.814 147.983C413.779 151.237 456.949 133.402 485.902 156.606C514.123 179.223 520.521 223.265 515.342 259.005C510.492 292.471 469.038 309.048 459.126 341.376Z" stroke="white" stroke-width="4"/>
<path opacity="0.15" fill-rule="evenodd" clip-rule="evenodd" d="M661.256 356.89C634.095 445.475 703.176 548.156 660.037 630.162C615.038 715.704 526.091 795.38 429.324 797.792C330.07 800.266 271.691 683.311 181.348 642.094C104.527 607.046 -1.96363 637.891 -58.5112 575.228C-115.056 512.569 -84.2003 412.879 -100.213 330.086C-115.867 249.153 -163.914 174.063 -151.868 92.5446C-139.027 5.64416 -102.09 -84.6896 -31.2386 -136.697C38.6366 -187.987 134.042 -176.872 220.704 -180.934C295.939 -184.461 366.702 -165.472 441.739 -158.867C540.323 -150.19 655.451 -197.753 732.666 -135.87C807.927 -75.5528 824.99 41.8997 811.177 137.215C798.244 226.464 687.69 270.674 661.256 356.89Z" stroke="white" stroke-width="4"/>
<path opacity="0.5" fill-rule="evenodd" clip-rule="evenodd" d="M452.006 277.545C448.196 300.706 422.235 311.953 410.227 332.135C398.258 352.251 402.894 383.488 382.311 394.678C361.825 405.816 337.283 390.512 314.903 383.961C294.176 377.894 273.404 372.39 257.256 358.073C239.468 342.3 225.689 322.531 219.698 299.544C212.906 273.489 204.572 241.761 221.466 220.766C238.472 199.63 271.503 203.751 298.565 201.526C317.619 199.96 334.771 209.381 353.882 209.879C380.325 210.569 409.383 189.979 431.143 204.985C452.402 219.645 456.194 252.088 452.006 277.545Z" stroke="white" stroke-width="4"/>
<path opacity="0.2" fill-rule="evenodd" clip-rule="evenodd" d="M345.737 633.04C231.409 682.344 123.177 834.714 19.1914 792.258C-98.306 744.285 23.8758 590.647 -0.448218 491.696C-11.4186 447.068 -86.7985 422.726 -83.0884 376.18C-79.3995 329.9 20.5235 298.421 18.6105 252.589C14.4461 152.816 -178.572 69.9534 -99.6156 -19.7927C-34.0503 -94.3175 116.408 25.6327 232.135 9.88709C336.316 -4.28761 412.108 -108.388 514.597 -103.362C613.592 -98.5062 700.254 -35.8238 718.292 33.7314C737.04 106.026 639.669 176.197 606.363 250.491C588.763 289.749 572.798 327.875 568.494 367.876C561.672 431.281 621.748 496.011 573.803 553.083C528.863 606.579 420.043 600.996 345.737 633.04Z" stroke="white" stroke-width="4"/>
</svg>
