<svg width="21" height="19" viewBox="0 0 21 19" fill="none" xmlns="http://www.w3.org/2000/svg">
<path d="M18.8423 5.22388C19.6963 4.6175 20.4146 3.86063 21 2.98913V2.98825C20.2186 3.33038 19.3874 3.55787 18.5194 3.66813C19.4119 3.13525 20.0935 2.29787 20.4137 1.289C19.5816 1.78512 18.6629 2.13512 17.6838 2.33112C16.8936 1.48937 15.7675 0.96875 14.539 0.96875C12.1555 0.96875 10.2366 2.90337 10.2366 5.27462C10.2366 5.61587 10.2655 5.944 10.3364 6.25638C6.75762 6.08138 3.59012 4.36637 1.46213 1.75275C1.09113 2.39762 0.872375 3.13525 0.872375 3.92887C0.872375 5.41988 1.63975 6.74113 2.78513 7.50675C2.093 7.49363 1.41488 7.29238 0.84 6.9765V7.02375C0.84 9.11588 2.33187 10.8536 4.28925 11.2544C3.93837 11.3506 3.55687 11.3961 3.1605 11.3961C2.88488 11.3961 2.60663 11.3804 2.34588 11.3226C2.90325 13.0271 4.487 14.281 6.36825 14.3221C4.9035 15.4675 3.04325 16.1579 1.02988 16.1579C0.67725 16.1579 0.338625 16.1421 0 16.0992C1.9075 17.3286 4.16675 18.0312 6.6045 18.0312C14.2021 18.0312 19.1537 11.6927 18.8423 5.22388Z" fill="#000"/>
</svg>
